<svg xmlns="http://www.w3.org/2000/svg" viewBox="0 0 1560 840" font-family="-apple-system, system-ui, 'Segoe UI', Helvetica, sans-serif">
  <defs>
    <filter id="sh" x="-2%" y="-2%" width="104%" height="104%">
      <feDropShadow dx="0.5" dy="1.5" stdDeviation="2" flood-opacity="0.07"/>
    </filter>
    <!-- Universal arrow marker: defined pointing RIGHT, orient="auto" rotates it -->
    <marker id="arrow" viewBox="0 0 10 10" refX="10" refY="5" markerWidth="6" markerHeight="6" orient="auto">
      <path d="M 0 0 L 10 5 L 0 10 Z" fill="#888"/>
    </marker>
    <marker id="arrowTeal" viewBox="0 0 10 10" refX="10" refY="5" markerWidth="6" markerHeight="6" orient="auto">
      <path d="M 0 0 L 10 5 L 0 10 Z" fill="#245761"/>
    </marker>
    <marker id="arrowRed" viewBox="0 0 10 10" refX="10" refY="5" markerWidth="6" markerHeight="6" orient="auto">
      <path d="M 0 0 L 10 5 L 0 10 Z" fill="#FF3008"/>
    </marker>
  </defs>

  <rect width="1560" height="840" fill="#F8F8F8"/>

  <!-- Title -->
  <text x="780" y="30" text-anchor="middle" font-size="18" font-weight="700" fill="#1A1A1A" letter-spacing="-0.3">Homepage Vertical Ranking — Architecture Evolution</text>
  <line x1="100" y1="42" x2="1460" y2="42" stroke="#E0E0E0" stroke-width="1"/>

  <!-- ════════════════════════════════════════════════════════════ -->
  <!-- PANEL 1: CURRENT                                            -->
  <!-- ════════════════════════════════════════════════════════════ -->
  <g transform="translate(15, 54)">
    <rect x="0" y="0" width="430" height="740" rx="10" fill="white" stroke="#FFD6CC" stroke-width="1"/>
    <rect x="0" y="0" width="430" height="48" rx="10" fill="#681109"/>
    <rect x="0" y="22" width="430" height="26" fill="#681109"/>
    <text x="215" y="20" text-anchor="middle" font-size="14" font-weight="700" fill="white" letter-spacing="0.8">CURRENT</text>
    <text x="215" y="39" text-anchor="middle" font-size="9" fill="#FFB8A8">Template Method Monolith · 1,900+ lines</text>

    <text x="215" y="68" text-anchor="middle" font-size="10" fill="#681109" font-weight="600">BaseEntityRankerConfiguration.rank()</text>

    <!-- Input -->
    <rect x="130" y="78" width="170" height="22" rx="11" fill="#F0F0F0" stroke="#CCC" stroke-width="0.7"/>
    <text x="215" y="93" text-anchor="middle" font-size="9" fill="#666">RankableContent</text>
    <line x1="215" y1="100" x2="215" y2="116" stroke="#888" stroke-width="1.2" marker-end="url(#arrow)"/>

    <!-- getEntities -->
    <rect x="20" y="122" width="390" height="36" rx="5" fill="#EBF5FF" stroke="#4A90C4" stroke-width="1" filter="url(#sh)"/>
    <text x="35" y="143" font-size="10" font-weight="600" fill="#173162">getEntities()</text>
    <text x="180" y="143" font-size="8.5" fill="#777">Flatten → ScorableEntity wrappers</text>
    <line x1="215" y1="158" x2="215" y2="174" stroke="#888" stroke-width="1.2" marker-end="url(#arrow)"/>

    <!-- getScoreBundle -->
    <rect x="20" y="180" width="390" height="105" rx="5" fill="#FFFBF0" stroke="#C4960A" stroke-width="1" filter="url(#sh)"/>
    <text x="35" y="198" font-size="10" font-weight="600" fill="#7A5800">getScoreBundle()</text>
    <text x="330" y="198" font-size="8" fill="#D03020" font-weight="600">3 concerns mixed</text>
    <rect x="35" y="206" width="360" height="19" rx="3" fill="#F2D531" fill-opacity="0.25" stroke="#D4B800" stroke-width="0.5"/>
    <text x="45" y="219" font-size="7.5" fill="#555">ML Scoring — Sibyl gRPC</text>
    <rect x="35" y="229" width="360" height="19" rx="3" fill="#F3944D" fill-opacity="0.2" stroke="#D07030" stroke-width="0.5"/>
    <text x="45" y="242" font-size="7.5" fill="#555">Interleaving — dual-list merge</text>
    <rect x="365" y="232" width="20" height="13" rx="3" fill="#FF3008" fill-opacity="0.85"/>
    <text x="375" y="241" text-anchor="middle" font-size="6.5" fill="white" font-weight="700">DV</text>
    <rect x="35" y="252" width="360" height="19" rx="3" fill="#F79DCC" fill-opacity="0.2" stroke="#C05090" stroke-width="0.5"/>
    <text x="45" y="265" font-size="7.5" fill="#555">Vertical Blending — mutates ScoreBundle in-place</text>
    <rect x="365" y="255" width="20" height="13" rx="3" fill="#FF3008" fill-opacity="0.85"/>
    <text x="375" y="264" text-anchor="middle" font-size="6.5" fill="white" font-weight="700">DV</text>
    <line x1="215" y1="285" x2="215" y2="301" stroke="#888" stroke-width="1.2" marker-end="url(#arrow)"/>

    <!-- getBoostBundle -->
    <rect x="20" y="307" width="390" height="212" rx="5" fill="#FFF3EF" stroke="#FF3008" stroke-width="1.3" filter="url(#sh)"/>
    <text x="35" y="325" font-size="10" font-weight="700" fill="#681109">getBoostBundle()</text>
    <text x="200" y="325" font-size="8" fill="#999">258 lines</text>
    <text x="275" y="325" font-size="8" fill="#D03020" font-weight="700">6 concerns interleaved</text>
    <rect x="35" y="334" width="360" height="18" rx="3" fill="#B8E6FF" fill-opacity="0.35" stroke="#80B8D8" stroke-width="0.4"/>
    <text x="45" y="346" font-size="7" fill="#555">1. Score Assignment — 94 lines of .copy(predictionScore=...)</text>
    <rect x="35" y="356" width="360" height="18" rx="3" fill="#FFC4FC" fill-opacity="0.3" stroke="#D090C8" stroke-width="0.4"/>
    <text x="45" y="368" font-size="7" fill="#555">2. LCM Intra-Ranking — hardcoded positions [4, 7, 10, 13]</text>
    <rect x="365" y="359" width="20" height="13" rx="3" fill="#FF3008" fill-opacity="0.85"/>
    <text x="375" y="368" text-anchor="middle" font-size="6.5" fill="white" font-weight="700">DV</text>
    <rect x="35" y="378" width="360" height="18" rx="3" fill="#EEFFBB" fill-opacity="0.35" stroke="#B8C860" stroke-width="0.4"/>
    <text x="45" y="390" font-size="7" fill="#555">3. Store List Reranking — sets class-level mutable state</text>
    <rect x="35" y="400" width="360" height="18" rx="3" fill="#B5F0D8" fill-opacity="0.3" stroke="#70C0A0" stroke-width="0.4"/>
    <text x="45" y="412" font-size="7" fill="#555">4. Intermixing Split — splits store list at index 30</text>
    <rect x="365" y="403" width="20" height="13" rx="3" fill="#FF3008" fill-opacity="0.85"/>
    <text x="375" y="412" text-anchor="middle" font-size="6.5" fill="white" font-weight="700">DV</text>
    <rect x="35" y="422" width="360" height="18" rx="3" fill="#FFD4B0" fill-opacity="0.3" stroke="#D0A070" stroke-width="0.4"/>
    <text x="45" y="434" font-size="7" fill="#555">5. Impression Capping — title-match filtering</text>
    <rect x="365" y="425" width="20" height="13" rx="3" fill="#FF3008" fill-opacity="0.85"/>
    <text x="375" y="434" text-anchor="middle" font-size="6.5" fill="white" font-weight="700">DV</text>
    <rect x="35" y="444" width="360" height="38" rx="3" fill="#FFB0B0" fill-opacity="0.25" stroke="#D07070" stroke-width="0.4"/>
    <text x="45" y="458" font-size="7" fill="#555">6. Position Boosting — 251-line 4-pass state machine</text>
    <text x="55" y="472" font-size="6.5" fill="#999" font-style="italic">Overwrites predictionScore with fabricated values</text>
    <rect x="365" y="447" width="20" height="13" rx="3" fill="#FF3008" fill-opacity="0.85"/>
    <text x="375" y="456" text-anchor="middle" font-size="6.5" fill="white" font-weight="700">DV</text>

    <!-- lateinit var coupling arrow -->
    <path d="M 410 390 Q 450 390, 450 600 Q 450 610, 410 610" fill="none" stroke="#FF3008" stroke-width="2" stroke-dasharray="6,3" marker-end="url(#arrowRed)"/>
    <rect x="440" y="486" width="68" height="18" rx="4" fill="white" stroke="#FF3008" stroke-width="1"/>
    <text x="474" y="499" text-anchor="middle" font-size="7.5" fill="#FF3008" font-weight="700">lateinit var</text>

    <line x1="215" y1="519" x2="215" y2="535" stroke="#888" stroke-width="1.2" marker-end="url(#arrow)"/>

    <!-- getRankingBundle -->
    <rect x="20" y="541" width="390" height="36" rx="5" fill="#F3EEFA" stroke="#7B4DB5" stroke-width="1" filter="url(#sh)"/>
    <text x="35" y="562" font-size="10" font-weight="600" fill="#4c0c3a">getRankingBundle()</text>
    <text x="220" y="562" font-size="8.5" fill="#777">Sort order + intermix group size</text>
    <rect x="365" y="550" width="20" height="13" rx="3" fill="#FF3008" fill-opacity="0.85"/>
    <text x="375" y="559" text-anchor="middle" font-size="6.5" fill="white" font-weight="700">DV</text>
    <line x1="215" y1="577" x2="215" y2="593" stroke="#888" stroke-width="1.2" marker-end="url(#arrow)"/>

    <!-- getRankableContent -->
    <rect x="20" y="599" width="390" height="36" rx="5" fill="#E8FFF2" stroke="#2D8B5E" stroke-width="1" filter="url(#sh)"/>
    <text x="35" y="620" font-size="10" font-weight="600" fill="#1A5C38">getRankableContent()</text>
    <text x="245" y="620" font-size="8.5" fill="#D03020" font-weight="600">reads mutable state from step 3</text>
    <line x1="215" y1="635" x2="215" y2="651" stroke="#888" stroke-width="1.2" marker-end="url(#arrow)"/>

    <!-- Output -->
    <rect x="130" y="657" width="170" height="22" rx="11" fill="#F0F0F0" stroke="#CCC" stroke-width="0.7"/>
    <text x="215" y="672" text-anchor="middle" font-size="9" fill="#666">RankableContent</text>

    <!-- DV summary -->
    <text x="215" y="698" text-anchor="middle" font-size="9" fill="#FF3008" font-weight="600">31 DVs scattered across 15+ files</text>
    <text x="215" y="712" text-anchor="middle" font-size="8" fill="#999">Each method resolves its own flags via static calls</text>

    <rect x="20" y="722" width="390" height="14" rx="3" fill="#681109" fill-opacity="0.04"/>
    <text x="215" y="733" text-anchor="middle" font-size="8" fill="#681109" font-weight="600">Adding an experiment: 2-3 weeks of careful threading</text>
  </g>

  <!-- ══════════════ MILESTONE 1 chevron (right-pointing) ══════════════ -->
  <g transform="translate(448, 410)">
    <!-- Right-pointing chevron: tip at large X -->
    <path d="M 6 2 L 26 16 L 6 30" fill="none" stroke="#245761" stroke-width="3" stroke-linecap="round" stroke-linejoin="round"/>
    <text x="16" y="48" text-anchor="middle" font-size="8" fill="#245761" font-weight="700">Milestone 1</text>
    <text x="16" y="60" text-anchor="middle" font-size="7.5" fill="#999">Wrap</text>
  </g>

  <!-- ════════════════════════════════════════════════════════════ -->
  <!-- PANEL 2: PHASE 1                                            -->
  <!-- ════════════════════════════════════════════════════════════ -->
  <g transform="translate(490, 54)">
    <rect x="0" y="0" width="430" height="740" rx="10" fill="white" stroke="#C8DFE8" stroke-width="1"/>
    <rect x="0" y="0" width="430" height="48" rx="10" fill="#2E6E7A"/>
    <rect x="0" y="22" width="430" height="26" fill="#2E6E7A"/>
    <text x="215" y="20" text-anchor="middle" font-size="14" font-weight="700" fill="white" letter-spacing="0.8">PHASE 1</text>
    <text x="215" y="39" text-anchor="middle" font-size="9" fill="#A0D8E0">Coarse Pipeline · Same code, explicit state</text>

    <text x="215" y="68" text-anchor="middle" font-size="8.5" fill="#999">DVs still resolved inside existing methods (unchanged)</text>

    <!-- Input -->
    <rect x="130" y="78" width="170" height="22" rx="11" fill="#F0F0F0" stroke="#CCC" stroke-width="0.7"/>
    <text x="215" y="93" text-anchor="middle" font-size="9" fill="#666">RankableContent</text>
    <line x1="215" y1="100" x2="215" y2="126" stroke="#245761" stroke-width="1.2" marker-end="url(#arrowTeal)"/>

    <!-- Step 1: EntityExtractionStep -->
    <rect x="30" y="132" width="370" height="50" rx="6" fill="#EBF5FF" stroke="#4A90C4" stroke-width="1.1" filter="url(#sh)"/>
    <text x="48" y="155" font-size="10.5" font-weight="600" fill="#173162">EntityExtractionStep</text>
    <text x="48" y="172" font-size="8" fill="#777">Delegates to delegate.getEntities()</text>
    <line x1="215" y1="182" x2="215" y2="208" stroke="#245761" stroke-width="1.2" marker-end="url(#arrowTeal)"/>

    <!-- Step 2: ScoringStep -->
    <rect x="30" y="214" width="370" height="50" rx="6" fill="#FFFBF0" stroke="#C4960A" stroke-width="1.1" filter="url(#sh)"/>
    <text x="48" y="237" font-size="10.5" font-weight="600" fill="#7A5800">ScoringStep</text>
    <text x="48" y="254" font-size="8" fill="#777">Delegates to delegate.getScoreBundle() (wraps 3 concerns)</text>
    <line x1="215" y1="264" x2="215" y2="290" stroke="#245761" stroke-width="1.2" marker-end="url(#arrowTeal)"/>

    <!-- Step 3: BoostBundleStep -->
    <rect x="30" y="296" width="370" height="50" rx="6" fill="#FFF3EF" stroke="#D05030" stroke-width="1.1" filter="url(#sh)"/>
    <text x="48" y="319" font-size="10.5" font-weight="600" fill="#8B2010">BoostBundleStep</text>
    <text x="48" y="336" font-size="8" fill="#777">Delegates to delegate.getBoostBundle() (wraps 6 concerns)</text>
    <line x1="215" y1="346" x2="215" y2="372" stroke="#245761" stroke-width="1.2" marker-end="url(#arrowTeal)"/>

    <!-- Step 4: RankingBundleStep -->
    <rect x="30" y="378" width="370" height="50" rx="6" fill="#F3EEFA" stroke="#7B4DB5" stroke-width="1.1" filter="url(#sh)"/>
    <text x="48" y="401" font-size="10.5" font-weight="600" fill="#4c0c3a">RankingBundleStep</text>
    <text x="48" y="418" font-size="8" fill="#777">Delegates to delegate.getRankingBundle()</text>
    <line x1="215" y1="428" x2="215" y2="454" stroke="#245761" stroke-width="1.2" marker-end="url(#arrowTeal)"/>

    <!-- Step 5: ReassemblyStep -->
    <rect x="30" y="460" width="370" height="50" rx="6" fill="#E8FFF2" stroke="#2D8B5E" stroke-width="1.1" filter="url(#sh)"/>
    <text x="48" y="483" font-size="10.5" font-weight="600" fill="#1A5C38">ReassemblyStep</text>
    <text x="48" y="500" font-size="8" fill="#777">Delegates to delegate.getRankableContent()</text>
    <line x1="215" y1="510" x2="215" y2="536" stroke="#245761" stroke-width="1.2" marker-end="url(#arrowTeal)"/>

    <!-- Output -->
    <rect x="130" y="542" width="170" height="22" rx="11" fill="#F0F0F0" stroke="#CCC" stroke-width="0.7"/>
    <text x="215" y="557" text-anchor="middle" font-size="9" fill="#666">RankableContent</text>

    <!-- State label -->
    <text x="215" y="584" text-anchor="middle" font-size="10" fill="#245761" font-weight="600">RankingPipelineState</text>
    <text x="215" y="598" text-anchor="middle" font-size="8" fill="#999">Immutable data class flows through all steps</text>

    <!-- What changes in Phase 1 -->
    <rect x="20" y="614" width="390" height="114" rx="6" fill="#245761" fill-opacity="0.03"/>
    <text x="215" y="634" text-anchor="middle" font-size="9.5" fill="#2E6E7A" font-weight="700">What changes in Phase 1</text>
    <text x="40" y="651" font-size="8.5" fill="#555">Data between steps is explicit (state fields, not local vars)</text>
    <text x="40" y="666" font-size="8.5" fill="#555">DV-gated: instant rollback by turning off the flag</text>
    <text x="40" y="681" font-size="8.5" fill="#555">Zero behavior change — same code called in same order</text>
    <text x="215" y="701" text-anchor="middle" font-size="9.5" fill="#2E6E7A" font-weight="700">What stays the same</text>
    <text x="40" y="718" font-size="8.5" fill="#555">DVs still scattered · Concerns still bundled within coarse steps</text>
  </g>

  <!-- ══════════════ MILESTONE 2 chevron (right-pointing) ══════════════ -->
  <g transform="translate(923, 410)">
    <path d="M 6 2 L 26 16 L 6 30" fill="none" stroke="#245761" stroke-width="3" stroke-linecap="round" stroke-linejoin="round"/>
    <text x="16" y="48" text-anchor="middle" font-size="8" fill="#245761" font-weight="700">Milestone 2</text>
    <text x="16" y="60" text-anchor="middle" font-size="7.5" fill="#999">Decompose</text>
  </g>

  <!-- ════════════════════════════════════════════════════════════ -->
  <!-- PANEL 3: PHASE 2                                            -->
  <!-- ════════════════════════════════════════════════════════════ -->
  <g transform="translate(960, 54)">
    <rect x="0" y="0" width="585" height="740" rx="10" fill="white" stroke="#B5E8D0" stroke-width="1"/>
    <rect x="0" y="0" width="585" height="48" rx="10" fill="#245761"/>
    <rect x="0" y="22" width="585" height="26" fill="#245761"/>
    <text x="292" y="20" text-anchor="middle" font-size="14" font-weight="700" fill="white" letter-spacing="0.8">PHASE 2</text>
    <text x="292" y="39" text-anchor="middle" font-size="9" fill="#7BE8B9">Full Decomposition · Single responsibility per step</text>

    <!-- Centralized DV resolution -->
    <rect x="130" y="60" width="326" height="34" rx="6" fill="#E8FFF2" stroke="#2D8B5E" stroke-width="1.2" filter="url(#sh)"/>
    <text x="293" y="75" text-anchor="middle" font-size="10" font-weight="700" fill="#245761">Centralized DV Resolution</text>
    <text x="293" y="88" text-anchor="middle" font-size="7.5" fill="#2D8B5E">31 DVs resolved once per request into RankingPipelineState</text>

    <!-- DV channel bar on right with horizontal label -->
    <text x="540" y="56" text-anchor="middle" font-size="7" fill="#2D8B5E" font-weight="600">DV channel</text>
    <rect x="534" y="60" width="10" height="630" rx="5" fill="#2D8B5E" fill-opacity="0.15" stroke="#2D8B5E" stroke-width="0.8"/>
    <!-- Connection from DV box to bar -->
    <line x1="456" y1="77" x2="534" y2="77" stroke="#2D8B5E" stroke-width="0.8" stroke-dasharray="4,2"/>
    <!-- Tick marks from bar to each step area -->
    <line x1="534" y1="138" x2="522" y2="138" stroke="#2D8B5E" stroke-width="0.7"/>
    <line x1="534" y1="194" x2="522" y2="194" stroke="#2D8B5E" stroke-width="0.7"/>
    <line x1="534" y1="224" x2="522" y2="224" stroke="#2D8B5E" stroke-width="0.7"/>
    <line x1="534" y1="254" x2="522" y2="254" stroke="#2D8B5E" stroke-width="0.7"/>
    <line x1="534" y1="322" x2="522" y2="322" stroke="#2D8B5E" stroke-width="0.7"/>
    <line x1="534" y1="352" x2="522" y2="352" stroke="#2D8B5E" stroke-width="0.7"/>
    <line x1="534" y1="382" x2="522" y2="382" stroke="#2D8B5E" stroke-width="0.7"/>
    <line x1="534" y1="412" x2="522" y2="412" stroke="#2D8B5E" stroke-width="0.7"/>
    <line x1="534" y1="442" x2="522" y2="442" stroke="#2D8B5E" stroke-width="0.7"/>
    <line x1="534" y1="472" x2="522" y2="472" stroke="#2D8B5E" stroke-width="0.7"/>
    <line x1="534" y1="520" x2="522" y2="520" stroke="#2D8B5E" stroke-width="0.7"/>
    <line x1="534" y1="558" x2="522" y2="558" stroke="#2D8B5E" stroke-width="0.7"/>

    <line x1="293" y1="94" x2="293" y2="108" stroke="#245761" stroke-width="1" marker-end="url(#arrowTeal)"/>

    <!-- Input -->
    <rect x="210" y="112" width="160" height="20" rx="10" fill="#F0F0F0" stroke="#CCC" stroke-width="0.7"/>
    <text x="290" y="126" text-anchor="middle" font-size="8.5" fill="#666">RankableContent</text>
    <line x1="290" y1="132" x2="290" y2="146" stroke="#245761" stroke-width="0.9" marker-end="url(#arrowTeal)"/>

    <!-- EntityExtractionStep -->
    <rect x="25" y="150" width="490" height="26" rx="5" fill="#EBF5FF" stroke="#4A90C4" stroke-width="0.9" filter="url(#sh)"/>
    <text x="43" y="167" font-size="9.5" font-weight="600" fill="#173162">EntityExtractionStep</text>
    <line x1="290" y1="176" x2="290" y2="186" stroke="#245761" stroke-width="0.9" marker-end="url(#arrowTeal)"/>

    <!-- SCORING GROUP -->
    <rect x="15" y="183" width="505" height="108" rx="6" fill="#C4960A" fill-opacity="0.05" stroke="#C4960A" stroke-width="0.6"/>
    <text x="27" y="196" font-size="8" fill="#C4960A" font-weight="700" letter-spacing="0.5">SCORING</text>

    <rect x="25" y="202" width="490" height="24" rx="4" fill="#FFF9E5" stroke="#C4960A" stroke-width="0.8" filter="url(#sh)"/>
    <text x="43" y="218" font-size="9" font-weight="600" fill="#7A5800">SibylScoringSubStep</text>
    <text x="350" y="218" font-size="7.5" fill="#777">Raw ML scores only</text>
    <line x1="290" y1="226" x2="290" y2="236" stroke="#245761" stroke-width="0.6" marker-end="url(#arrowTeal)"/>

    <rect x="25" y="238" width="490" height="24" rx="4" fill="#FFF0E0" stroke="#D07030" stroke-width="0.8" filter="url(#sh)"/>
    <text x="43" y="254" font-size="9" font-weight="600" fill="#8B4513">InterleavingSubStep</text>
    <text x="350" y="254" font-size="7.5" fill="#777">Skippable via isApplicable()</text>
    <line x1="290" y1="262" x2="290" y2="272" stroke="#245761" stroke-width="0.6" marker-end="url(#arrowTeal)"/>

    <rect x="25" y="274" width="490" height="24" rx="4" fill="#FFE8F5" stroke="#C05090" stroke-width="0.8" filter="url(#sh)"/>
    <text x="43" y="290" font-size="9" font-weight="600" fill="#7A2060">VerticalBlendingSubStep</text>
    <text x="350" y="290" font-size="7.5" fill="#2D8B5E">Returns new ScoreBundle</text>

    <line x1="290" y1="298" x2="290" y2="312" stroke="#245761" stroke-width="0.9" marker-end="url(#arrowTeal)"/>

    <!-- BOOSTING GROUP -->
    <rect x="15" y="309" width="505" height="190" rx="6" fill="#D05030" fill-opacity="0.03" stroke="#D05030" stroke-width="0.6"/>
    <text x="27" y="322" font-size="8" fill="#D05030" font-weight="700" letter-spacing="0.5">BOOSTING</text>

    <rect x="25" y="328" width="490" height="24" rx="4" fill="#E8F4FF" stroke="#6098C0" stroke-width="0.8" filter="url(#sh)"/>
    <text x="43" y="344" font-size="9" font-weight="600" fill="#2A5580">ScoreAssignmentSubStep</text>
    <text x="350" y="344" font-size="7.5" fill="#777">Pure data mapping</text>
    <line x1="290" y1="352" x2="290" y2="362" stroke="#245761" stroke-width="0.6" marker-end="url(#arrowTeal)"/>

    <rect x="25" y="364" width="490" height="24" rx="4" fill="#FFE8F8" stroke="#B870B0" stroke-width="0.8" filter="url(#sh)"/>
    <text x="43" y="380" font-size="9" font-weight="600" fill="#6A2068">LcmIntraRankingSubStep</text>
    <text x="350" y="380" font-size="7.5" fill="#777">Homepage-gated</text>
    <line x1="290" y1="388" x2="290" y2="398" stroke="#245761" stroke-width="0.6" marker-end="url(#arrowTeal)"/>

    <rect x="25" y="400" width="490" height="24" rx="4" fill="#F0FFE8" stroke="#70A050" stroke-width="0.8" filter="url(#sh)"/>
    <text x="43" y="416" font-size="9" font-weight="600" fill="#3A6030">StoreListRerankingSubStep</text>
    <text x="350" y="416" font-size="7.5" fill="#2D8B5E">Writes to state (no lateinit)</text>
    <line x1="290" y1="424" x2="290" y2="434" stroke="#245761" stroke-width="0.6" marker-end="url(#arrowTeal)"/>

    <rect x="25" y="436" width="490" height="24" rx="4" fill="#E0FFF0" stroke="#40A080" stroke-width="0.8" filter="url(#sh)"/>
    <text x="43" y="452" font-size="9" font-weight="600" fill="#1A5C38">IntermixingSplitSubStep</text>
    <text x="350" y="452" font-size="7.5" fill="#777">Unified (was 3 locations)</text>
    <line x1="290" y1="460" x2="290" y2="470" stroke="#245761" stroke-width="0.6" marker-end="url(#arrowTeal)"/>

    <rect x="25" y="472" width="490" height="24" rx="4" fill="#FFEEE0" stroke="#C08050" stroke-width="0.8" filter="url(#sh)"/>
    <text x="43" y="488" font-size="9" font-weight="600" fill="#6A4020">ImpressionCappingSubStep</text>
    <text x="350" y="488" font-size="7.5" fill="#777">Toggleable</text>

    <line x1="290" y1="499" x2="290" y2="509" stroke="#245761" stroke-width="0.9" marker-end="url(#arrowTeal)"/>

    <!-- PositionBoostingSubStep (standalone — last boosting step) -->
    <rect x="25" y="508" width="490" height="24" rx="4" fill="#FFE0E0" stroke="#C05050" stroke-width="0.8" filter="url(#sh)"/>
    <text x="43" y="524" font-size="9" font-weight="600" fill="#7A2020">PositionBoostingSubStep</text>
    <text x="350" y="524" font-size="7.5" fill="#777">Isolated state machine</text>

    <line x1="290" y1="535" x2="290" y2="548" stroke="#245761" stroke-width="0.9" marker-end="url(#arrowTeal)"/>

    <!-- SortOrderAssignmentStep -->
    <rect x="25" y="552" width="490" height="26" rx="5" fill="#F3EEFA" stroke="#7B4DB5" stroke-width="0.9" filter="url(#sh)"/>
    <text x="43" y="569" font-size="9.5" font-weight="600" fill="#4c0c3a">SortOrderAssignmentStep</text>
    <line x1="290" y1="578" x2="290" y2="590" stroke="#245761" stroke-width="0.9" marker-end="url(#arrowTeal)"/>

    <!-- ReassemblyStep -->
    <rect x="25" y="594" width="490" height="26" rx="5" fill="#E8FFF2" stroke="#2D8B5E" stroke-width="0.9" filter="url(#sh)"/>
    <text x="43" y="611" font-size="9.5" font-weight="600" fill="#1A5C38">ReassemblyStep</text>
    <line x1="290" y1="620" x2="290" y2="634" stroke="#245761" stroke-width="0.9" marker-end="url(#arrowTeal)"/>

    <!-- Output -->
    <rect x="210" y="638" width="160" height="20" rx="10" fill="#F0F0F0" stroke="#CCC" stroke-width="0.7"/>
    <text x="290" y="652" text-anchor="middle" font-size="8.5" fill="#666">RankableContent</text>

    <!-- Benefits -->
    <rect x="20" y="668" width="545" height="62" rx="6" fill="#245761" fill-opacity="0.04"/>
    <text x="292" y="685" text-anchor="middle" font-size="9.5" fill="#245761" font-weight="700">What this unlocks</text>
    <text x="40" y="700" font-size="8.5" fill="#555">Add a step = add a class · Skip = isApplicable() returns false · Test = unit test one class</text>
    <text x="40" y="716" font-size="8.5" fill="#2D8B5E" font-weight="600">Each step reads DVs from state — no scattered static calls, DV interactions explicit and documentable</text>
  </g>

  <!-- Legend -->
  <g transform="translate(15, 812)">
    <rect x="0" y="-4" width="1530" height="24" rx="5" fill="#F0F0F0" stroke="#E0E0E0" stroke-width="0.5"/>
    <rect x="16" y="0" width="16" height="12" rx="2" fill="#FF3008" fill-opacity="0.85"/>
    <text x="21" y="9" font-size="6" fill="white" font-weight="700">DV</text>
    <text x="38" y="9" font-size="8" fill="#777">= Dynamic Value (experiment flag)</text>
    <line x1="250" y1="6" x2="280" y2="6" stroke="#FF3008" stroke-width="2" stroke-dasharray="5,3"/>
    <text x="286" y="9" font-size="8" fill="#777">= Mutable state coupling (lateinit var)</text>
    <line x1="520" y1="6" x2="545" y2="6" stroke="#245761" stroke-width="1.2" marker-end="url(#arrowTeal)"/>
    <text x="552" y="9" font-size="8" fill="#777">= Explicit state flow</text>
    <rect x="710" y="0" width="20" height="12" rx="3" fill="#E8FFF2" stroke="#2D8B5E" stroke-width="0.7"/>
    <text x="736" y="9" font-size="8" fill="#777">= Centralized DV channel (Phase 2)</text>
    <path d="M 945 1 L 955 7 L 945 13" fill="none" stroke="#245761" stroke-width="2" stroke-linecap="round" stroke-linejoin="round"/>
    <text x="962" y="9" font-size="8" fill="#777">= Evolution direction (Milestone)</text>
  </g>
</svg>