<svg xmlns="http://www.w3.org/2000/svg" viewBox="0 0 1560 780" font-family="-apple-system, system-ui, 'Segoe UI', Helvetica, sans-serif">
  <defs>
    <filter id="sh" x="-2%" y="-2%" width="104%" height="104%">
      <feDropShadow dx="0.5" dy="1.5" stdDeviation="2" flood-opacity="0.07"/>
    </filter>
    <marker id="arrow" viewBox="0 0 10 10" refX="10" refY="5" markerWidth="6" markerHeight="6" orient="auto">
      <path d="M 0 0 L 10 5 L 0 10 Z" fill="#888"/>
    </marker>
    <marker id="arrowTeal" viewBox="0 0 10 10" refX="10" refY="5" markerWidth="6" markerHeight="6" orient="auto">
      <path d="M 0 0 L 10 5 L 0 10 Z" fill="#245761"/>
    </marker>
  </defs>

  <rect width="1560" height="780" fill="#F8F8F8"/>

  <!-- Title -->
  <text x="780" y="30" text-anchor="middle" font-size="18" font-weight="700" fill="#1A1A1A" letter-spacing="-0.3">Homepage Vertical Ranking — Architecture Evolution</text>
  <line x1="100" y1="42" x2="1460" y2="42" stroke="#E0E0E0" stroke-width="1"/>

  <!-- ════════════════════════════════════════════════════════════ -->
  <!-- PANEL 1: CURRENT                                            -->
  <!-- ════════════════════════════════════════════════════════════ -->
  <g transform="translate(10, 54)">
    <rect x="0" y="0" width="420" height="670" rx="10" fill="white" stroke="#FFD6CC" stroke-width="1"/>
    <rect x="0" y="0" width="420" height="48" rx="10" fill="#681109"/>
    <rect x="0" y="22" width="420" height="26" fill="#681109"/>
    <text x="210" y="20" text-anchor="middle" font-size="14" font-weight="700" fill="white" letter-spacing="0.8">CURRENT</text>
    <text x="210" y="39" text-anchor="middle" font-size="9" fill="#FFB8A8">Existing Monolithic Structure</text>

    <text x="210" y="68" text-anchor="middle" font-size="10" fill="#681109" font-weight="600">BaseEntityRankerConfiguration.rank()</text>

    <!-- Input -->
    <rect x="125" y="78" width="170" height="22" rx="11" fill="#F0F0F0" stroke="#CCC" stroke-width="0.7"/>
    <text x="210" y="93" text-anchor="middle" font-size="9" fill="#666">RankableContent</text>
    <line x1="210" y1="100" x2="210" y2="118" stroke="#888" stroke-width="1.2" marker-end="url(#arrow)"/>

    <!-- getEntities -->
    <rect x="15" y="124" width="390" height="36" rx="5" fill="#EBF5FF" stroke="#4A90C4" stroke-width="1" filter="url(#sh)"/>
    <text x="30" y="145" font-size="10" font-weight="600" fill="#173162">getEntities()</text>
    <text x="175" y="145" font-size="8.5" fill="#777">Flatten → ScorableEntity wrappers</text>
    <line x1="210" y1="160" x2="210" y2="178" stroke="#888" stroke-width="1.2" marker-end="url(#arrow)"/>

    <!-- getScoreBundle -->
    <rect x="15" y="184" width="390" height="105" rx="5" fill="#FFFBF0" stroke="#C4960A" stroke-width="1" filter="url(#sh)"/>
    <text x="30" y="202" font-size="10" font-weight="600" fill="#7A5800">getScoreBundle()</text>
    <text x="325" y="202" font-size="8" fill="#D03020" font-weight="600">3 concerns mixed</text>
    <rect x="30" y="210" width="360" height="19" rx="3" fill="#F2D531" fill-opacity="0.25" stroke="#D4B800" stroke-width="0.5"/>
    <text x="40" y="223" font-size="7.5" fill="#555">ML Scoring — Sibyl gRPC</text>
    <rect x="30" y="233" width="360" height="19" rx="3" fill="#F3944D" fill-opacity="0.2" stroke="#D07030" stroke-width="0.5"/>
    <text x="40" y="246" font-size="7.5" fill="#555">Interleaving — dual-list merge</text>
    <rect x="360" y="236" width="20" height="13" rx="3" fill="#FF3008" fill-opacity="0.85"/>
    <text x="370" y="245" text-anchor="middle" font-size="6.5" fill="white" font-weight="700">DV</text>
    <rect x="30" y="256" width="360" height="19" rx="3" fill="#F79DCC" fill-opacity="0.2" stroke="#C05090" stroke-width="0.5"/>
    <text x="40" y="269" font-size="7.5" fill="#555">Vertical Blending — mutates ScoreBundle in-place</text>
    <rect x="360" y="259" width="20" height="13" rx="3" fill="#FF3008" fill-opacity="0.85"/>
    <text x="370" y="268" text-anchor="middle" font-size="6.5" fill="white" font-weight="700">DV</text>
    <line x1="210" y1="289" x2="210" y2="307" stroke="#888" stroke-width="1.2" marker-end="url(#arrow)"/>

    <!-- getBoostBundle -->
    <rect x="15" y="313" width="390" height="188" rx="5" fill="#FFF3EF" stroke="#FF3008" stroke-width="1.3" filter="url(#sh)"/>
    <text x="30" y="331" font-size="10" font-weight="700" fill="#681109">getBoostBundle()</text>
    <text x="195" y="331" font-size="8" fill="#999">258 lines</text>
    <text x="270" y="331" font-size="8" fill="#D03020" font-weight="700">6 concerns interleaved</text>
    <rect x="30" y="340" width="360" height="18" rx="3" fill="#B8E6FF" fill-opacity="0.35" stroke="#80B8D8" stroke-width="0.4"/>
    <text x="40" y="352" font-size="7" fill="#555">1. Score Assignment — 94 lines of .copy(predictionScore=...)</text>
    <rect x="30" y="362" width="360" height="18" rx="3" fill="#FFC4FC" fill-opacity="0.3" stroke="#D090C8" stroke-width="0.4"/>
    <text x="40" y="374" font-size="7" fill="#555">2. LCM Intra-Ranking — hardcoded positions [4, 7, 10, 13]</text>
    <rect x="360" y="365" width="20" height="13" rx="3" fill="#FF3008" fill-opacity="0.85"/>
    <text x="370" y="374" text-anchor="middle" font-size="6.5" fill="white" font-weight="700">DV</text>
    <rect x="30" y="384" width="360" height="18" rx="3" fill="#EEFFBB" fill-opacity="0.35" stroke="#B8C860" stroke-width="0.4"/>
    <text x="40" y="396" font-size="7" fill="#555">3. Store List Reranking — sets class-level mutable state</text>
    <rect x="30" y="406" width="360" height="18" rx="3" fill="#B5F0D8" fill-opacity="0.3" stroke="#70C0A0" stroke-width="0.4"/>
    <text x="40" y="418" font-size="7" fill="#555">4. Intermixing Split — splits store list at index 30</text>
    <rect x="360" y="409" width="20" height="13" rx="3" fill="#FF3008" fill-opacity="0.85"/>
    <text x="370" y="418" text-anchor="middle" font-size="6.5" fill="white" font-weight="700">DV</text>
    <rect x="30" y="428" width="360" height="18" rx="3" fill="#FFD4B0" fill-opacity="0.3" stroke="#D0A070" stroke-width="0.4"/>
    <text x="40" y="440" font-size="7" fill="#555">5. Impression Capping — title-match filtering</text>
    <rect x="360" y="431" width="20" height="13" rx="3" fill="#FF3008" fill-opacity="0.85"/>
    <text x="370" y="440" text-anchor="middle" font-size="6.5" fill="white" font-weight="700">DV</text>
    <rect x="30" y="450" width="360" height="38" rx="3" fill="#FFB0B0" fill-opacity="0.25" stroke="#D07070" stroke-width="0.4"/>
    <text x="40" y="464" font-size="7" fill="#555">6. Position Boosting — 251-line 4-pass state machine</text>
    <text x="50" y="478" font-size="6.5" fill="#999" font-style="italic">Overwrites predictionScore with fabricated values</text>
    <rect x="360" y="453" width="20" height="13" rx="3" fill="#FF3008" fill-opacity="0.85"/>
    <text x="370" y="462" text-anchor="middle" font-size="6.5" fill="white" font-weight="700">DV</text>

    <line x1="210" y1="501" x2="210" y2="519" stroke="#888" stroke-width="1.2" marker-end="url(#arrow)"/>

    <!-- getRankingBundle -->
    <rect x="15" y="525" width="390" height="36" rx="5" fill="#F3EEFA" stroke="#7B4DB5" stroke-width="1" filter="url(#sh)"/>
    <text x="30" y="546" font-size="10" font-weight="600" fill="#4c0c3a">getRankingBundle()</text>
    <text x="215" y="546" font-size="8.5" fill="#777">Sort order + intermix group size</text>
    <rect x="360" y="534" width="20" height="13" rx="3" fill="#FF3008" fill-opacity="0.85"/>
    <text x="370" y="543" text-anchor="middle" font-size="6.5" fill="white" font-weight="700">DV</text>
    <line x1="210" y1="561" x2="210" y2="579" stroke="#888" stroke-width="1.2" marker-end="url(#arrow)"/>

    <!-- getRankableContent -->
    <rect x="15" y="585" width="390" height="36" rx="5" fill="#E8FFF2" stroke="#2D8B5E" stroke-width="1" filter="url(#sh)"/>
    <text x="30" y="606" font-size="10" font-weight="600" fill="#1A5C38">getRankableContent()</text>
    <text x="240" y="606" font-size="8.5" fill="#D03020" font-weight="600">reads mutable state from getBoostBundle()</text>
    <line x1="210" y1="621" x2="210" y2="635" stroke="#888" stroke-width="1.2" marker-end="url(#arrow)"/>

    <!-- Output -->
    <rect x="125" y="637" width="170" height="22" rx="11" fill="#F0F0F0" stroke="#CCC" stroke-width="0.7"/>
    <text x="210" y="652" text-anchor="middle" font-size="9" fill="#666">RankableContent</text>
  </g>

  <!-- ══════════════ Transition arrow 1 ══════════════ -->
  <g transform="translate(440, 375)">
    <path d="M 6 2 L 26 16 L 6 30" fill="none" stroke="#245761" stroke-width="3" stroke-linecap="round" stroke-linejoin="round"/>
  </g>

  <!-- ════════════════════════════════════════════════════════════ -->
  <!-- PANEL 2: MILESTONE 1                                        -->
  <!-- ════════════════════════════════════════════════════════════ -->
  <g transform="translate(480, 54)">
    <rect x="0" y="0" width="430" height="670" rx="10" fill="white" stroke="#C8DFE8" stroke-width="1"/>
    <rect x="0" y="0" width="430" height="48" rx="10" fill="#2E6E7A"/>
    <rect x="0" y="22" width="430" height="26" fill="#2E6E7A"/>
    <text x="215" y="20" text-anchor="middle" font-size="14" font-weight="700" fill="white" letter-spacing="0.8">MILESTONE 1</text>
    <text x="215" y="39" text-anchor="middle" font-size="9" fill="#A0D8E0">Coarse Pipeline · Same code, explicit immutable state</text>

    <text x="215" y="68" text-anchor="middle" font-size="8.5" fill="#999">DVs still resolved inside existing methods (unchanged)</text>

    <!-- Input -->
    <rect x="130" y="78" width="170" height="22" rx="11" fill="#F0F0F0" stroke="#CCC" stroke-width="0.7"/>
    <text x="215" y="93" text-anchor="middle" font-size="9" fill="#666">RankableContent</text>
    <line x1="215" y1="100" x2="215" y2="118" stroke="#245761" stroke-width="1.2" marker-end="url(#arrowTeal)"/>

    <!-- Step 1: EntityExtractionStep -->
    <rect x="25" y="124" width="380" height="50" rx="6" fill="#EBF5FF" stroke="#4A90C4" stroke-width="1.1" filter="url(#sh)"/>
    <text x="43" y="147" font-size="10.5" font-weight="600" fill="#173162">EntityExtractionStep</text>
    <text x="43" y="164" font-size="8" fill="#777">Delegates to delegate.getEntities()</text>
    <line x1="215" y1="174" x2="215" y2="192" stroke="#245761" stroke-width="1.2" marker-end="url(#arrowTeal)"/>

    <!-- Step 2: ScoringStep -->
    <rect x="25" y="198" width="380" height="50" rx="6" fill="#FFFBF0" stroke="#C4960A" stroke-width="1.1" filter="url(#sh)"/>
    <text x="43" y="221" font-size="10.5" font-weight="600" fill="#7A5800">ScoringStep</text>
    <text x="43" y="238" font-size="8" fill="#777">Delegates to delegate.getScoreBundle() (wraps 3 concerns)</text>
    <rect x="375" y="210" width="20" height="13" rx="3" fill="#FF3008" fill-opacity="0.85"/>
    <text x="385" y="219" text-anchor="middle" font-size="6.5" fill="white" font-weight="700">DV</text>
    <line x1="215" y1="248" x2="215" y2="266" stroke="#245761" stroke-width="1.2" marker-end="url(#arrowTeal)"/>

    <!-- Step 3: BoostBundleStep -->
    <rect x="25" y="272" width="380" height="50" rx="6" fill="#FFF3EF" stroke="#D05030" stroke-width="1.1" filter="url(#sh)"/>
    <text x="43" y="295" font-size="10.5" font-weight="600" fill="#8B2010">BoostBundleStep</text>
    <text x="43" y="312" font-size="8" fill="#777">Delegates to delegate.getBoostBundle() (wraps 6 concerns)</text>
    <rect x="375" y="284" width="20" height="13" rx="3" fill="#FF3008" fill-opacity="0.85"/>
    <text x="385" y="293" text-anchor="middle" font-size="6.5" fill="white" font-weight="700">DV</text>
    <line x1="215" y1="322" x2="215" y2="340" stroke="#245761" stroke-width="1.2" marker-end="url(#arrowTeal)"/>

    <!-- Step 4: RankingBundleStep -->
    <rect x="25" y="346" width="380" height="50" rx="6" fill="#F3EEFA" stroke="#7B4DB5" stroke-width="1.1" filter="url(#sh)"/>
    <text x="43" y="369" font-size="10.5" font-weight="600" fill="#4c0c3a">RankingBundleStep</text>
    <text x="43" y="386" font-size="8" fill="#777">Delegates to delegate.getRankingBundle()</text>
    <rect x="375" y="358" width="20" height="13" rx="3" fill="#FF3008" fill-opacity="0.85"/>
    <text x="385" y="367" text-anchor="middle" font-size="6.5" fill="white" font-weight="700">DV</text>
    <line x1="215" y1="396" x2="215" y2="414" stroke="#245761" stroke-width="1.2" marker-end="url(#arrowTeal)"/>

    <!-- Step 5: ReassemblyStep -->
    <rect x="25" y="420" width="380" height="50" rx="6" fill="#E8FFF2" stroke="#2D8B5E" stroke-width="1.1" filter="url(#sh)"/>
    <text x="43" y="443" font-size="10.5" font-weight="600" fill="#1A5C38">ReassemblyStep</text>
    <text x="43" y="460" font-size="8" fill="#777">Delegates to delegate.getRankableContent()</text>
    <line x1="215" y1="470" x2="215" y2="488" stroke="#245761" stroke-width="1.2" marker-end="url(#arrowTeal)"/>

    <!-- Output -->
    <rect x="130" y="494" width="170" height="22" rx="11" fill="#F0F0F0" stroke="#CCC" stroke-width="0.7"/>
    <text x="215" y="509" text-anchor="middle" font-size="9" fill="#666">RankableContent</text>

    <!-- State label (integrated into subtitle) -->
  </g>

  <!-- ══════════════ Transition arrow 2 ══════════════ -->
  <g transform="translate(920, 375)">
    <path d="M 6 2 L 26 16 L 6 30" fill="none" stroke="#245761" stroke-width="3" stroke-linecap="round" stroke-linejoin="round"/>
  </g>

  <!-- ════════════════════════════════════════════════════════════ -->
  <!-- PANEL 3: MILESTONE 2                                        -->
  <!-- ════════════════════════════════════════════════════════════ -->
  <g transform="translate(955, 54)">
    <rect x="0" y="0" width="590" height="710" rx="10" fill="white" stroke="#B5E8D0" stroke-width="1"/>
    <rect x="0" y="0" width="590" height="48" rx="10" fill="#245761"/>
    <rect x="0" y="22" width="590" height="26" fill="#245761"/>
    <text x="295" y="20" text-anchor="middle" font-size="14" font-weight="700" fill="white" letter-spacing="0.8">MILESTONE 2</text>
    <text x="295" y="39" text-anchor="middle" font-size="9" fill="#7BE8B9">Full Decomposition · Single responsibility per step</text>

    <!-- Centralized DV resolution -->
    <rect x="130" y="60" width="330" height="34" rx="6" fill="#E8FFF2" stroke="#2D8B5E" stroke-width="1.2" filter="url(#sh)"/>
    <text x="295" y="75" text-anchor="middle" font-size="10" font-weight="700" fill="#245761">Centralized DV Resolution</text>
    <text x="295" y="88" text-anchor="middle" font-size="7.5" fill="#2D8B5E">31 DVs resolved once per request into RankingPipelineState</text>
    <rect x="465" y="67" width="20" height="13" rx="3" fill="#FF3008" fill-opacity="0.85"/>
    <text x="475" y="76" text-anchor="middle" font-size="6.5" fill="white" font-weight="700">DV</text>

    <!-- DV channel bar on right -->
    <text x="548" y="56" text-anchor="middle" font-size="7" fill="#2D8B5E" font-weight="600">DV Context</text>
    <rect x="542" y="60" width="10" height="600" rx="5" fill="#2D8B5E" fill-opacity="0.15" stroke="#2D8B5E" stroke-width="0.8"/>
    <line x1="460" y1="77" x2="542" y2="77" stroke="#2D8B5E" stroke-width="0.8" stroke-dasharray="4,2"/>

    <line x1="295" y1="94" x2="295" y2="108" stroke="#245761" stroke-width="1" marker-end="url(#arrowTeal)"/>

    <!-- Input -->
    <rect x="215" y="112" width="160" height="20" rx="10" fill="#F0F0F0" stroke="#CCC" stroke-width="0.7"/>
    <text x="295" y="126" text-anchor="middle" font-size="8.5" fill="#666">RankableContent</text>
    <line x1="295" y1="132" x2="295" y2="146" stroke="#245761" stroke-width="0.9" marker-end="url(#arrowTeal)"/>

    <!-- EntityExtractionStep (y=150, h=26, center=163) -->
    <rect x="25" y="150" width="500" height="26" rx="5" fill="#EBF5FF" stroke="#4A90C4" stroke-width="0.9" filter="url(#sh)"/>
    <text x="43" y="167" font-size="9.5" font-weight="600" fill="#173162">EntityExtractionStep</text>
    <line x1="542" y1="163" x2="530" y2="163" stroke="#2D8B5E" stroke-width="0.7"/>
    <line x1="295" y1="176" x2="295" y2="190" stroke="#245761" stroke-width="0.9" marker-end="url(#arrowTeal)"/>

    <!-- SibylScoringSubStep (y=194, h=26, center=207) -->
    <rect x="25" y="194" width="500" height="26" rx="5" fill="#FFF9E5" stroke="#C4960A" stroke-width="0.8" filter="url(#sh)"/>
    <text x="43" y="211" font-size="9" font-weight="600" fill="#7A5800">SibylScoringSubStep</text>
    <text x="370" y="211" font-size="7.5" fill="#777">Sibyl gRPC prediction scores</text>
    <line x1="542" y1="207" x2="530" y2="207" stroke="#2D8B5E" stroke-width="0.7"/>
    <line x1="295" y1="220" x2="295" y2="234" stroke="#245761" stroke-width="0.9" marker-end="url(#arrowTeal)"/>

    <!-- InterleavingSubStep (y=238, h=26, center=251) -->
    <rect x="25" y="238" width="500" height="26" rx="5" fill="#FFF0E0" stroke="#D07030" stroke-width="0.8" filter="url(#sh)"/>
    <text x="43" y="255" font-size="9" font-weight="600" fill="#8B4513">InterleavingSubStep</text>
    <text x="370" y="255" font-size="7.5" fill="#777">Dual-list A/B ranking merge</text>
    <line x1="542" y1="251" x2="530" y2="251" stroke="#2D8B5E" stroke-width="0.7"/>
    <line x1="295" y1="264" x2="295" y2="278" stroke="#245761" stroke-width="0.9" marker-end="url(#arrowTeal)"/>

    <!-- VerticalBlendingSubStep (y=282, h=26, center=295) -->
    <rect x="25" y="282" width="500" height="26" rx="5" fill="#FFE8F5" stroke="#C05090" stroke-width="0.8" filter="url(#sh)"/>
    <text x="43" y="299" font-size="9" font-weight="600" fill="#7A2060">VerticalBlendingSubStep</text>
    <text x="370" y="299" font-size="7.5" fill="#2D8B5E">Cross-vertical diversity reranking</text>
    <line x1="542" y1="295" x2="530" y2="295" stroke="#2D8B5E" stroke-width="0.7"/>
    <line x1="295" y1="308" x2="295" y2="322" stroke="#245761" stroke-width="0.9" marker-end="url(#arrowTeal)"/>

    <!-- ScoreAssignmentSubStep (y=326, h=26, center=339) -->
    <rect x="25" y="326" width="500" height="26" rx="5" fill="#E8F4FF" stroke="#6098C0" stroke-width="0.8" filter="url(#sh)"/>
    <text x="43" y="343" font-size="9" font-weight="600" fill="#2A5580">ScoreAssignmentSubStep</text>
    <text x="370" y="343" font-size="7.5" fill="#777">Copies ML scores onto entity data classes</text>
    <line x1="542" y1="339" x2="530" y2="339" stroke="#2D8B5E" stroke-width="0.7"/>
    <line x1="295" y1="352" x2="295" y2="366" stroke="#245761" stroke-width="0.9" marker-end="url(#arrowTeal)"/>

    <!-- LcmIntraRankingSubStep (y=370, h=26, center=383) -->
    <rect x="25" y="370" width="500" height="26" rx="5" fill="#FFE8F8" stroke="#B870B0" stroke-width="0.8" filter="url(#sh)"/>
    <text x="43" y="387" font-size="9" font-weight="600" fill="#6A2068">LcmIntraRankingSubStep</text>
    <text x="370" y="387" font-size="7.5" fill="#777">Pins LCM carousels to fixed positions</text>
    <line x1="542" y1="383" x2="530" y2="383" stroke="#2D8B5E" stroke-width="0.7"/>
    <line x1="295" y1="396" x2="295" y2="410" stroke="#245761" stroke-width="0.9" marker-end="url(#arrowTeal)"/>

    <!-- StoreListRerankingSubStep (y=414, h=26, center=427) -->
    <rect x="25" y="414" width="500" height="26" rx="5" fill="#F0FFE8" stroke="#70A050" stroke-width="0.8" filter="url(#sh)"/>
    <text x="43" y="431" font-size="9" font-weight="600" fill="#3A6030">StoreListRerankingSubStep</text>
    <text x="370" y="431" font-size="7.5" fill="#2D8B5E">Sorts stores by open/closed status</text>
    <line x1="542" y1="427" x2="530" y2="427" stroke="#2D8B5E" stroke-width="0.7"/>
    <line x1="295" y1="440" x2="295" y2="454" stroke="#245761" stroke-width="0.9" marker-end="url(#arrowTeal)"/>

    <!-- IntermixingSplitSubStep (y=458, h=26, center=471) -->
    <rect x="25" y="458" width="500" height="26" rx="5" fill="#E0FFF0" stroke="#40A080" stroke-width="0.8" filter="url(#sh)"/>
    <text x="43" y="475" font-size="9" font-weight="600" fill="#1A5C38">IntermixingSplitSubStep</text>
    <text x="370" y="475" font-size="7.5" fill="#777">Splits stores at idx 30 for carousel intermix</text>
    <line x1="542" y1="471" x2="530" y2="471" stroke="#2D8B5E" stroke-width="0.7"/>
    <line x1="295" y1="484" x2="295" y2="498" stroke="#245761" stroke-width="0.9" marker-end="url(#arrowTeal)"/>

    <!-- ImpressionCappingSubStep (y=502, h=26, center=515) -->
    <rect x="25" y="502" width="500" height="26" rx="5" fill="#FFEEE0" stroke="#C08050" stroke-width="0.8" filter="url(#sh)"/>
    <text x="43" y="519" font-size="9" font-weight="600" fill="#6A4020">ImpressionCappingSubStep</text>
    <text x="370" y="519" font-size="7.5" fill="#777">Filters carousels by impression history</text>
    <line x1="542" y1="515" x2="530" y2="515" stroke="#2D8B5E" stroke-width="0.7"/>
    <line x1="295" y1="528" x2="295" y2="542" stroke="#245761" stroke-width="0.9" marker-end="url(#arrowTeal)"/>

    <!-- PositionBoostingSubStep (y=546, h=26, center=559) -->
    <rect x="25" y="546" width="500" height="26" rx="5" fill="#FFE0E0" stroke="#C05050" stroke-width="0.8" filter="url(#sh)"/>
    <text x="43" y="563" font-size="9" font-weight="600" fill="#7A2020">PositionBoostingSubStep</text>
    <text x="370" y="563" font-size="7.5" fill="#777">4-pass boost/unpin score assignment</text>
    <line x1="542" y1="559" x2="530" y2="559" stroke="#2D8B5E" stroke-width="0.7"/>
    <line x1="295" y1="572" x2="295" y2="586" stroke="#245761" stroke-width="0.9" marker-end="url(#arrowTeal)"/>

    <!-- SortOrderAssignmentStep (y=590, h=26, center=603) -->
    <rect x="25" y="590" width="500" height="26" rx="5" fill="#F3EEFA" stroke="#7B4DB5" stroke-width="0.9" filter="url(#sh)"/>
    <text x="43" y="607" font-size="9.5" font-weight="600" fill="#4c0c3a">SortOrderAssignmentStep</text>
    <text x="370" y="607" font-size="7.5" fill="#777">Pinned/flowing position assignment</text>
    <line x1="542" y1="603" x2="530" y2="603" stroke="#2D8B5E" stroke-width="0.7"/>
    <line x1="295" y1="616" x2="295" y2="628" stroke="#245761" stroke-width="0.9" marker-end="url(#arrowTeal)"/>

    <!-- ReassemblyStep (y=632, h=26, center=645) -->
    <rect x="25" y="632" width="500" height="26" rx="5" fill="#E8FFF2" stroke="#2D8B5E" stroke-width="0.9" filter="url(#sh)"/>
    <text x="43" y="649" font-size="9.5" font-weight="600" fill="#1A5C38">ReassemblyStep</text>
    <text x="370" y="649" font-size="7.5" fill="#777">Rebuilds RankableContent from ranked entities</text>
    <line x1="542" y1="645" x2="530" y2="645" stroke="#2D8B5E" stroke-width="0.7"/>
    <line x1="295" y1="658" x2="295" y2="672" stroke="#245761" stroke-width="0.9" marker-end="url(#arrowTeal)"/>

    <!-- Output -->
    <rect x="215" y="676" width="160" height="20" rx="10" fill="#F0F0F0" stroke="#CCC" stroke-width="0.7"/>
    <text x="295" y="690" text-anchor="middle" font-size="8.5" fill="#666">RankableContent</text>
  </g>
</svg>
