<svg xmlns="http://www.w3.org/2000/svg" viewBox="0 0 1560 760" font-family="-apple-system, system-ui, 'Segoe UI', Helvetica, sans-serif">
  <defs>
    <filter id="sh" x="-2%" y="-2%" width="104%" height="104%">
      <feDropShadow dx="0.5" dy="1.5" stdDeviation="2" flood-opacity="0.07"/>
    </filter>
    <!-- Universal arrow marker: defined pointing RIGHT, orient="auto" rotates it -->
    <marker id="arrow" viewBox="0 0 10 10" refX="10" refY="5" markerWidth="6" markerHeight="6" orient="auto">
      <path d="M 0 0 L 10 5 L 0 10 Z" fill="#888"/>
    </marker>
    <marker id="arrowTeal" viewBox="0 0 10 10" refX="10" refY="5" markerWidth="6" markerHeight="6" orient="auto">
      <path d="M 0 0 L 10 5 L 0 10 Z" fill="#245761"/>
    </marker>
  </defs>

  <rect width="1560" height="760" fill="#F8F8F8"/>

  <!-- Title -->
  <text x="780" y="30" text-anchor="middle" font-size="18" font-weight="700" fill="#1A1A1A" letter-spacing="-0.3">Homepage Vertical Ranking — Architecture Evolution</text>
  <line x1="100" y1="42" x2="1460" y2="42" stroke="#E0E0E0" stroke-width="1"/>

  <!-- ════════════════════════════════════════════════════════════ -->
  <!-- PANEL 1: CURRENT                                            -->
  <!-- ════════════════════════════════════════════════════════════ -->
  <g transform="translate(15, 54)">
    <rect x="0" y="0" width="430" height="670" rx="10" fill="white" stroke="#FFD6CC" stroke-width="1"/>
    <rect x="0" y="0" width="430" height="48" rx="10" fill="#681109"/>
    <rect x="0" y="22" width="430" height="26" fill="#681109"/>
    <text x="215" y="20" text-anchor="middle" font-size="14" font-weight="700" fill="white" letter-spacing="0.8">CURRENT</text>
    <text x="215" y="39" text-anchor="middle" font-size="9" fill="#FFB8A8">Template Method Monolith · 1,900+ lines</text>

    <text x="215" y="68" text-anchor="middle" font-size="10" fill="#681109" font-weight="600">BaseEntityRankerConfiguration.rank()</text>

    <!-- Input -->
    <rect x="130" y="78" width="170" height="22" rx="11" fill="#F0F0F0" stroke="#CCC" stroke-width="0.7"/>
    <text x="215" y="93" text-anchor="middle" font-size="9" fill="#666">RankableContent</text>
    <line x1="215" y1="100" x2="215" y2="118" stroke="#888" stroke-width="1.2" marker-end="url(#arrow)"/>

    <!-- getEntities -->
    <rect x="20" y="124" width="390" height="36" rx="5" fill="#EBF5FF" stroke="#4A90C4" stroke-width="1" filter="url(#sh)"/>
    <text x="35" y="145" font-size="10" font-weight="600" fill="#173162">getEntities()</text>
    <text x="180" y="145" font-size="8.5" fill="#777">Flatten → ScorableEntity wrappers</text>
    <line x1="215" y1="160" x2="215" y2="178" stroke="#888" stroke-width="1.2" marker-end="url(#arrow)"/>

    <!-- getScoreBundle -->
    <rect x="20" y="184" width="390" height="105" rx="5" fill="#FFFBF0" stroke="#C4960A" stroke-width="1" filter="url(#sh)"/>
    <text x="35" y="202" font-size="10" font-weight="600" fill="#7A5800">getScoreBundle()</text>
    <text x="330" y="202" font-size="8" fill="#D03020" font-weight="600">3 concerns mixed</text>
    <rect x="35" y="210" width="360" height="19" rx="3" fill="#F2D531" fill-opacity="0.25" stroke="#D4B800" stroke-width="0.5"/>
    <text x="45" y="223" font-size="7.5" fill="#555">ML Scoring — Sibyl gRPC</text>
    <rect x="35" y="233" width="360" height="19" rx="3" fill="#F3944D" fill-opacity="0.2" stroke="#D07030" stroke-width="0.5"/>
    <text x="45" y="246" font-size="7.5" fill="#555">Interleaving — dual-list merge</text>
    <rect x="365" y="236" width="20" height="13" rx="3" fill="#FF3008" fill-opacity="0.85"/>
    <text x="375" y="245" text-anchor="middle" font-size="6.5" fill="white" font-weight="700">DV</text>
    <rect x="35" y="256" width="360" height="19" rx="3" fill="#F79DCC" fill-opacity="0.2" stroke="#C05090" stroke-width="0.5"/>
    <text x="45" y="269" font-size="7.5" fill="#555">Vertical Blending — mutates ScoreBundle in-place</text>
    <rect x="365" y="259" width="20" height="13" rx="3" fill="#FF3008" fill-opacity="0.85"/>
    <text x="375" y="268" text-anchor="middle" font-size="6.5" fill="white" font-weight="700">DV</text>
    <line x1="215" y1="289" x2="215" y2="307" stroke="#888" stroke-width="1.2" marker-end="url(#arrow)"/>

    <!-- getBoostBundle -->
    <rect x="20" y="313" width="390" height="188" rx="5" fill="#FFF3EF" stroke="#FF3008" stroke-width="1.3" filter="url(#sh)"/>
    <text x="35" y="331" font-size="10" font-weight="700" fill="#681109">getBoostBundle()</text>
    <text x="200" y="331" font-size="8" fill="#999">258 lines</text>
    <text x="275" y="331" font-size="8" fill="#D03020" font-weight="700">6 concerns interleaved</text>
    <rect x="35" y="340" width="360" height="18" rx="3" fill="#B8E6FF" fill-opacity="0.35" stroke="#80B8D8" stroke-width="0.4"/>
    <text x="45" y="352" font-size="7" fill="#555">1. Score Assignment — 94 lines of .copy(predictionScore=...)</text>
    <rect x="35" y="362" width="360" height="18" rx="3" fill="#FFC4FC" fill-opacity="0.3" stroke="#D090C8" stroke-width="0.4"/>
    <text x="45" y="374" font-size="7" fill="#555">2. LCM Intra-Ranking — hardcoded positions [4, 7, 10, 13]</text>
    <rect x="365" y="365" width="20" height="13" rx="3" fill="#FF3008" fill-opacity="0.85"/>
    <text x="375" y="374" text-anchor="middle" font-size="6.5" fill="white" font-weight="700">DV</text>
    <rect x="35" y="384" width="360" height="18" rx="3" fill="#EEFFBB" fill-opacity="0.35" stroke="#B8C860" stroke-width="0.4"/>
    <text x="45" y="396" font-size="7" fill="#555">3. Store List Reranking — sets class-level mutable state</text>
    <rect x="35" y="406" width="360" height="18" rx="3" fill="#B5F0D8" fill-opacity="0.3" stroke="#70C0A0" stroke-width="0.4"/>
    <text x="45" y="418" font-size="7" fill="#555">4. Intermixing Split — splits store list at index 30</text>
    <rect x="365" y="409" width="20" height="13" rx="3" fill="#FF3008" fill-opacity="0.85"/>
    <text x="375" y="418" text-anchor="middle" font-size="6.5" fill="white" font-weight="700">DV</text>
    <rect x="35" y="428" width="360" height="18" rx="3" fill="#FFD4B0" fill-opacity="0.3" stroke="#D0A070" stroke-width="0.4"/>
    <text x="45" y="440" font-size="7" fill="#555">5. Impression Capping — title-match filtering</text>
    <rect x="365" y="431" width="20" height="13" rx="3" fill="#FF3008" fill-opacity="0.85"/>
    <text x="375" y="440" text-anchor="middle" font-size="6.5" fill="white" font-weight="700">DV</text>
    <rect x="35" y="450" width="360" height="38" rx="3" fill="#FFB0B0" fill-opacity="0.25" stroke="#D07070" stroke-width="0.4"/>
    <text x="45" y="464" font-size="7" fill="#555">6. Position Boosting — 251-line 4-pass state machine</text>
    <text x="55" y="478" font-size="6.5" fill="#999" font-style="italic">Overwrites predictionScore with fabricated values</text>
    <rect x="365" y="453" width="20" height="13" rx="3" fill="#FF3008" fill-opacity="0.85"/>
    <text x="375" y="462" text-anchor="middle" font-size="6.5" fill="white" font-weight="700">DV</text>

    <line x1="215" y1="501" x2="215" y2="519" stroke="#888" stroke-width="1.2" marker-end="url(#arrow)"/>

    <!-- getRankingBundle -->
    <rect x="20" y="525" width="390" height="36" rx="5" fill="#F3EEFA" stroke="#7B4DB5" stroke-width="1" filter="url(#sh)"/>
    <text x="35" y="546" font-size="10" font-weight="600" fill="#4c0c3a">getRankingBundle()</text>
    <text x="220" y="546" font-size="8.5" fill="#777">Sort order + intermix group size</text>
    <rect x="365" y="534" width="20" height="13" rx="3" fill="#FF3008" fill-opacity="0.85"/>
    <text x="375" y="543" text-anchor="middle" font-size="6.5" fill="white" font-weight="700">DV</text>
    <line x1="215" y1="561" x2="215" y2="579" stroke="#888" stroke-width="1.2" marker-end="url(#arrow)"/>

    <!-- getRankableContent -->
    <rect x="20" y="585" width="390" height="36" rx="5" fill="#E8FFF2" stroke="#2D8B5E" stroke-width="1" filter="url(#sh)"/>
    <text x="35" y="606" font-size="10" font-weight="600" fill="#1A5C38">getRankableContent()</text>
    <text x="245" y="606" font-size="8.5" fill="#D03020" font-weight="600">reads mutable state from step 3</text>
    <line x1="215" y1="621" x2="215" y2="635" stroke="#888" stroke-width="1.2" marker-end="url(#arrow)"/>

    <!-- Output -->
    <rect x="130" y="637" width="170" height="22" rx="11" fill="#F0F0F0" stroke="#CCC" stroke-width="0.7"/>
    <text x="215" y="652" text-anchor="middle" font-size="9" fill="#666">RankableContent</text>
  </g>

  <!-- ══════════════ MILESTONE 1 chevron ══════════════ -->
  <g transform="translate(455, 370)">
    <path d="M 6 2 L 26 16 L 6 30" fill="none" stroke="#245761" stroke-width="3" stroke-linecap="round" stroke-linejoin="round"/>
    <text x="16" y="48" text-anchor="middle" font-size="8" fill="#245761" font-weight="700">Milestone 1</text>
    <text x="16" y="60" text-anchor="middle" font-size="7.5" fill="#999">Wrap</text>
  </g>

  <!-- ════════════════════════════════════════════════════════════ -->
  <!-- PANEL 2: PHASE 1                                            -->
  <!-- ════════════════════════════════════════════════════════════ -->
  <g transform="translate(500, 54)">
    <rect x="0" y="0" width="420" height="570" rx="10" fill="white" stroke="#C8DFE8" stroke-width="1"/>
    <rect x="0" y="0" width="420" height="48" rx="10" fill="#2E6E7A"/>
    <rect x="0" y="22" width="420" height="26" fill="#2E6E7A"/>
    <text x="210" y="20" text-anchor="middle" font-size="14" font-weight="700" fill="white" letter-spacing="0.8">PHASE 1</text>
    <text x="210" y="39" text-anchor="middle" font-size="9" fill="#A0D8E0">Coarse Pipeline · Same code, explicit state</text>

    <text x="210" y="68" text-anchor="middle" font-size="8.5" fill="#999">DVs still resolved inside existing methods (unchanged)</text>

    <!-- Input -->
    <rect x="125" y="78" width="170" height="22" rx="11" fill="#F0F0F0" stroke="#CCC" stroke-width="0.7"/>
    <text x="210" y="93" text-anchor="middle" font-size="9" fill="#666">RankableContent</text>
    <line x1="210" y1="100" x2="210" y2="118" stroke="#245761" stroke-width="1.2" marker-end="url(#arrowTeal)"/>

    <!-- Step 1: EntityExtractionStep -->
    <rect x="25" y="124" width="370" height="50" rx="6" fill="#EBF5FF" stroke="#4A90C4" stroke-width="1.1" filter="url(#sh)"/>
    <text x="43" y="147" font-size="10.5" font-weight="600" fill="#173162">EntityExtractionStep</text>
    <text x="43" y="164" font-size="8" fill="#777">Delegates to delegate.getEntities()</text>
    <line x1="210" y1="174" x2="210" y2="192" stroke="#245761" stroke-width="1.2" marker-end="url(#arrowTeal)"/>

    <!-- Step 2: ScoringStep -->
    <rect x="25" y="198" width="370" height="50" rx="6" fill="#FFFBF0" stroke="#C4960A" stroke-width="1.1" filter="url(#sh)"/>
    <text x="43" y="221" font-size="10.5" font-weight="600" fill="#7A5800">ScoringStep</text>
    <text x="43" y="238" font-size="8" fill="#777">Delegates to delegate.getScoreBundle() (wraps 3 concerns)</text>
    <line x1="210" y1="248" x2="210" y2="266" stroke="#245761" stroke-width="1.2" marker-end="url(#arrowTeal)"/>

    <!-- Step 3: BoostBundleStep -->
    <rect x="25" y="272" width="370" height="50" rx="6" fill="#FFF3EF" stroke="#D05030" stroke-width="1.1" filter="url(#sh)"/>
    <text x="43" y="295" font-size="10.5" font-weight="600" fill="#8B2010">BoostBundleStep</text>
    <text x="43" y="312" font-size="8" fill="#777">Delegates to delegate.getBoostBundle() (wraps 6 concerns)</text>
    <line x1="210" y1="322" x2="210" y2="340" stroke="#245761" stroke-width="1.2" marker-end="url(#arrowTeal)"/>

    <!-- Step 4: RankingBundleStep -->
    <rect x="25" y="346" width="370" height="50" rx="6" fill="#F3EEFA" stroke="#7B4DB5" stroke-width="1.1" filter="url(#sh)"/>
    <text x="43" y="369" font-size="10.5" font-weight="600" fill="#4c0c3a">RankingBundleStep</text>
    <text x="43" y="386" font-size="8" fill="#777">Delegates to delegate.getRankingBundle()</text>
    <line x1="210" y1="396" x2="210" y2="414" stroke="#245761" stroke-width="1.2" marker-end="url(#arrowTeal)"/>

    <!-- Step 5: ReassemblyStep -->
    <rect x="25" y="420" width="370" height="50" rx="6" fill="#E8FFF2" stroke="#2D8B5E" stroke-width="1.1" filter="url(#sh)"/>
    <text x="43" y="443" font-size="10.5" font-weight="600" fill="#1A5C38">ReassemblyStep</text>
    <text x="43" y="460" font-size="8" fill="#777">Delegates to delegate.getRankableContent()</text>
    <line x1="210" y1="470" x2="210" y2="488" stroke="#245761" stroke-width="1.2" marker-end="url(#arrowTeal)"/>

    <!-- Output -->
    <rect x="125" y="494" width="170" height="22" rx="11" fill="#F0F0F0" stroke="#CCC" stroke-width="0.7"/>
    <text x="210" y="509" text-anchor="middle" font-size="9" fill="#666">RankableContent</text>

    <!-- State label -->
    <text x="210" y="540" text-anchor="middle" font-size="10" fill="#245761" font-weight="600">RankingPipelineState</text>
    <text x="210" y="554" text-anchor="middle" font-size="8" fill="#999">Immutable data class flows through all steps</text>
  </g>

  <!-- ══════════════ MILESTONE 2 chevron ══════════════ -->
  <g transform="translate(930, 370)">
    <path d="M 6 2 L 26 16 L 6 30" fill="none" stroke="#245761" stroke-width="3" stroke-linecap="round" stroke-linejoin="round"/>
    <text x="16" y="48" text-anchor="middle" font-size="8" fill="#245761" font-weight="700">Milestone 2</text>
    <text x="16" y="60" text-anchor="middle" font-size="7.5" fill="#999">Decompose</text>
  </g>

  <!-- ════════════════════════════════════════════════════════════ -->
  <!-- PANEL 3: PHASE 2                                            -->
  <!-- ════════════════════════════════════════════════════════════ -->
  <g transform="translate(965, 54)">
    <rect x="0" y="0" width="580" height="690" rx="10" fill="white" stroke="#B5E8D0" stroke-width="1"/>
    <rect x="0" y="0" width="580" height="48" rx="10" fill="#245761"/>
    <rect x="0" y="22" width="580" height="26" fill="#245761"/>
    <text x="290" y="20" text-anchor="middle" font-size="14" font-weight="700" fill="white" letter-spacing="0.8">PHASE 2</text>
    <text x="290" y="39" text-anchor="middle" font-size="9" fill="#7BE8B9">Full Decomposition · Single responsibility per step</text>

    <!-- Centralized DV resolution -->
    <rect x="130" y="60" width="326" height="34" rx="6" fill="#E8FFF2" stroke="#2D8B5E" stroke-width="1.2" filter="url(#sh)"/>
    <text x="293" y="75" text-anchor="middle" font-size="10" font-weight="700" fill="#245761">Centralized DV Resolution</text>
    <text x="293" y="88" text-anchor="middle" font-size="7.5" fill="#2D8B5E">31 DVs resolved once per request into RankingPipelineState</text>

    <!-- DV channel bar on right -->
    <text x="540" y="56" text-anchor="middle" font-size="7" fill="#2D8B5E" font-weight="600">DV channel</text>
    <rect x="534" y="60" width="10" height="575" rx="5" fill="#2D8B5E" fill-opacity="0.15" stroke="#2D8B5E" stroke-width="0.8"/>
    <!-- Connection from DV box to bar -->
    <line x1="456" y1="77" x2="534" y2="77" stroke="#2D8B5E" stroke-width="0.8" stroke-dasharray="4,2"/>

    <line x1="290" y1="94" x2="290" y2="108" stroke="#245761" stroke-width="1" marker-end="url(#arrowTeal)"/>

    <!-- Input -->
    <rect x="210" y="112" width="160" height="20" rx="10" fill="#F0F0F0" stroke="#CCC" stroke-width="0.7"/>
    <text x="290" y="126" text-anchor="middle" font-size="8.5" fill="#666">RankableContent</text>
    <line x1="290" y1="132" x2="290" y2="146" stroke="#245761" stroke-width="0.9" marker-end="url(#arrowTeal)"/>

    <!-- EntityExtractionStep (y=150, h=26, center=163) -->
    <rect x="25" y="150" width="490" height="26" rx="5" fill="#EBF5FF" stroke="#4A90C4" stroke-width="0.9" filter="url(#sh)"/>
    <text x="43" y="167" font-size="9.5" font-weight="600" fill="#173162">EntityExtractionStep</text>
    <line x1="534" y1="163" x2="522" y2="163" stroke="#2D8B5E" stroke-width="0.7"/>
    <line x1="290" y1="176" x2="290" y2="188" stroke="#245761" stroke-width="0.9" marker-end="url(#arrowTeal)"/>

    <!-- SCORING GROUP -->
    <rect x="15" y="185" width="505" height="112" rx="6" fill="#C4960A" fill-opacity="0.05" stroke="#C4960A" stroke-width="0.6"/>
    <text x="27" y="198" font-size="8" fill="#C4960A" font-weight="700" letter-spacing="0.5">SCORING</text>

    <!-- SibylScoringSubStep (y=204, h=24, center=216) -->
    <rect x="25" y="204" width="490" height="24" rx="4" fill="#FFF9E5" stroke="#C4960A" stroke-width="0.8" filter="url(#sh)"/>
    <text x="43" y="220" font-size="9" font-weight="600" fill="#7A5800">SibylScoringSubStep</text>
    <text x="350" y="220" font-size="7.5" fill="#777">Raw ML scores only</text>
    <line x1="534" y1="216" x2="522" y2="216" stroke="#2D8B5E" stroke-width="0.7"/>
    <line x1="290" y1="228" x2="290" y2="240" stroke="#245761" stroke-width="0.6" marker-end="url(#arrowTeal)"/>

    <!-- InterleavingSubStep (y=242, h=24, center=254) -->
    <rect x="25" y="242" width="490" height="24" rx="4" fill="#FFF0E0" stroke="#D07030" stroke-width="0.8" filter="url(#sh)"/>
    <text x="43" y="258" font-size="9" font-weight="600" fill="#8B4513">InterleavingSubStep</text>
    <text x="350" y="258" font-size="7.5" fill="#777">Skippable via isApplicable()</text>
    <line x1="534" y1="254" x2="522" y2="254" stroke="#2D8B5E" stroke-width="0.7"/>
    <line x1="290" y1="266" x2="290" y2="278" stroke="#245761" stroke-width="0.6" marker-end="url(#arrowTeal)"/>

    <!-- VerticalBlendingSubStep (y=280, h=24, center=292) -->
    <rect x="25" y="280" width="490" height="24" rx="4" fill="#FFE8F5" stroke="#C05090" stroke-width="0.8" filter="url(#sh)"/>
    <text x="43" y="296" font-size="9" font-weight="600" fill="#7A2060">VerticalBlendingSubStep</text>
    <text x="350" y="296" font-size="7.5" fill="#2D8B5E">Returns new ScoreBundle</text>
    <line x1="534" y1="292" x2="522" y2="292" stroke="#2D8B5E" stroke-width="0.7"/>

    <line x1="290" y1="304" x2="290" y2="318" stroke="#245761" stroke-width="0.9" marker-end="url(#arrowTeal)"/>

    <!-- BOOSTING GROUP -->
    <rect x="15" y="315" width="505" height="196" rx="6" fill="#D05030" fill-opacity="0.03" stroke="#D05030" stroke-width="0.6"/>
    <text x="27" y="328" font-size="8" fill="#D05030" font-weight="700" letter-spacing="0.5">BOOSTING</text>

    <!-- ScoreAssignmentSubStep (y=334, h=24, center=346) -->
    <rect x="25" y="334" width="490" height="24" rx="4" fill="#E8F4FF" stroke="#6098C0" stroke-width="0.8" filter="url(#sh)"/>
    <text x="43" y="350" font-size="9" font-weight="600" fill="#2A5580">ScoreAssignmentSubStep</text>
    <text x="350" y="350" font-size="7.5" fill="#777">Pure data mapping</text>
    <line x1="534" y1="346" x2="522" y2="346" stroke="#2D8B5E" stroke-width="0.7"/>
    <line x1="290" y1="358" x2="290" y2="370" stroke="#245761" stroke-width="0.6" marker-end="url(#arrowTeal)"/>

    <!-- LcmIntraRankingSubStep (y=372, h=24, center=384) -->
    <rect x="25" y="372" width="490" height="24" rx="4" fill="#FFE8F8" stroke="#B870B0" stroke-width="0.8" filter="url(#sh)"/>
    <text x="43" y="388" font-size="9" font-weight="600" fill="#6A2068">LcmIntraRankingSubStep</text>
    <text x="350" y="388" font-size="7.5" fill="#777">Homepage-gated</text>
    <line x1="534" y1="384" x2="522" y2="384" stroke="#2D8B5E" stroke-width="0.7"/>
    <line x1="290" y1="396" x2="290" y2="408" stroke="#245761" stroke-width="0.6" marker-end="url(#arrowTeal)"/>

    <!-- StoreListRerankingSubStep (y=410, h=24, center=422) -->
    <rect x="25" y="410" width="490" height="24" rx="4" fill="#F0FFE8" stroke="#70A050" stroke-width="0.8" filter="url(#sh)"/>
    <text x="43" y="426" font-size="9" font-weight="600" fill="#3A6030">StoreListRerankingSubStep</text>
    <text x="350" y="426" font-size="7.5" fill="#2D8B5E">Writes to state (no lateinit)</text>
    <line x1="534" y1="422" x2="522" y2="422" stroke="#2D8B5E" stroke-width="0.7"/>
    <line x1="290" y1="434" x2="290" y2="446" stroke="#245761" stroke-width="0.6" marker-end="url(#arrowTeal)"/>

    <!-- IntermixingSplitSubStep (y=448, h=24, center=460) -->
    <rect x="25" y="448" width="490" height="24" rx="4" fill="#E0FFF0" stroke="#40A080" stroke-width="0.8" filter="url(#sh)"/>
    <text x="43" y="464" font-size="9" font-weight="600" fill="#1A5C38">IntermixingSplitSubStep</text>
    <text x="350" y="464" font-size="7.5" fill="#777">Unified (was 3 locations)</text>
    <line x1="534" y1="460" x2="522" y2="460" stroke="#2D8B5E" stroke-width="0.7"/>
    <line x1="290" y1="472" x2="290" y2="484" stroke="#245761" stroke-width="0.6" marker-end="url(#arrowTeal)"/>

    <!-- ImpressionCappingSubStep (y=486, h=24, center=498) -->
    <rect x="25" y="486" width="490" height="24" rx="4" fill="#FFEEE0" stroke="#C08050" stroke-width="0.8" filter="url(#sh)"/>
    <text x="43" y="502" font-size="9" font-weight="600" fill="#6A4020">ImpressionCappingSubStep</text>
    <text x="350" y="502" font-size="7.5" fill="#777">Toggleable</text>
    <line x1="534" y1="498" x2="522" y2="498" stroke="#2D8B5E" stroke-width="0.7"/>

    <line x1="290" y1="510" x2="290" y2="522" stroke="#245761" stroke-width="0.9" marker-end="url(#arrowTeal)"/>

    <!-- PositionBoostingSubStep (y=524, h=24, center=536) — standalone last boosting step -->
    <rect x="25" y="524" width="490" height="24" rx="4" fill="#FFE0E0" stroke="#C05050" stroke-width="0.8" filter="url(#sh)"/>
    <text x="43" y="540" font-size="9" font-weight="600" fill="#7A2020">PositionBoostingSubStep</text>
    <text x="350" y="540" font-size="7.5" fill="#777">Isolated state machine</text>

    <line x1="290" y1="548" x2="290" y2="562" stroke="#245761" stroke-width="0.9" marker-end="url(#arrowTeal)"/>

    <!-- SortOrderAssignmentStep (y=566, h=26, center=579) -->
    <rect x="25" y="566" width="490" height="26" rx="5" fill="#F3EEFA" stroke="#7B4DB5" stroke-width="0.9" filter="url(#sh)"/>
    <text x="43" y="583" font-size="9.5" font-weight="600" fill="#4c0c3a">SortOrderAssignmentStep</text>
    <line x1="534" y1="579" x2="522" y2="579" stroke="#2D8B5E" stroke-width="0.7"/>
    <line x1="290" y1="592" x2="290" y2="604" stroke="#245761" stroke-width="0.9" marker-end="url(#arrowTeal)"/>

    <!-- ReassemblyStep (y=608, h=26, center=621) -->
    <rect x="25" y="608" width="490" height="26" rx="5" fill="#E8FFF2" stroke="#2D8B5E" stroke-width="0.9" filter="url(#sh)"/>
    <text x="43" y="625" font-size="9.5" font-weight="600" fill="#1A5C38">ReassemblyStep</text>
    <line x1="534" y1="621" x2="522" y2="621" stroke="#2D8B5E" stroke-width="0.7"/>
    <line x1="290" y1="634" x2="290" y2="648" stroke="#245761" stroke-width="0.9" marker-end="url(#arrowTeal)"/>

    <!-- Output -->
    <rect x="210" y="652" width="160" height="20" rx="10" fill="#F0F0F0" stroke="#CCC" stroke-width="0.7"/>
    <text x="290" y="666" text-anchor="middle" font-size="8.5" fill="#666">RankableContent</text>
  </g>

  <!-- Legend -->
  <g transform="translate(15, 750)">
    <rect x="0" y="-4" width="1530" height="24" rx="5" fill="#F0F0F0" stroke="#E0E0E0" stroke-width="0.5"/>
    <rect x="16" y="0" width="16" height="12" rx="2" fill="#FF3008" fill-opacity="0.85"/>
    <text x="21" y="9" font-size="6" fill="white" font-weight="700">DV</text>
    <text x="38" y="9" font-size="8" fill="#777">= Dynamic Value (experiment flag)</text>
    <line x1="350" y1="6" x2="375" y2="6" stroke="#245761" stroke-width="1.2" marker-end="url(#arrowTeal)"/>
    <text x="382" y="9" font-size="8" fill="#777">= Explicit state flow</text>
    <rect x="580" y="0" width="20" height="12" rx="3" fill="#E8FFF2" stroke="#2D8B5E" stroke-width="0.7"/>
    <text x="606" y="9" font-size="8" fill="#777">= Centralized DV channel (Phase 2)</text>
    <path d="M 850 1 L 860 7 L 850 13" fill="none" stroke="#245761" stroke-width="2" stroke-linecap="round" stroke-linejoin="round"/>
    <text x="868" y="9" font-size="8" fill="#777">= Evolution direction (Milestone)</text>
  </g>
</svg>
